#!OML:ASF H:\Terrain\Walking\May29\JustinRory\rory.ASF
:FULLY-SPECIFIED
:DEGREES
1467
root 11.1511 18.6551 17.194 -177.914 8.82958 174.934
lowerback 0.150336 -1.57904 -8.02947
upperback 0.582859 -1.95901 -1.90476
thorax 0.728621 -0.964214 2.51464
lowerneck 2.53942 -3.21358 -4.20035
upperneck 23.7869 -2.88545 4.42511
head 6.97214 -0.540733 2.11551
rclavicle 1.2275e-014 -5.96354e-015
rhumerus 42.3866 -67.9785 -19.1604
rradius 26.9222
rwrist -37.8308
rhand -13.9834 22.1692
rfingers 7.12502
rthumb 12.1451 -7.45832
lclavicle 1.2275e-014 -5.96354e-015
lhumerus 42.4094 58.797 14.9801
lradius 31.4956
lwrist 56.3641
lhand -17.0309 19.869
lfingers 7.12502
lthumb 9.20553 49.6481
rfemur -24.088 3.89901 7.50486
rtibia 38.7432
rfoot -12.8384 -15.0631
rtoes 10.2049
lfemur -2.02858 -6.05651 -27.3254
ltibia 20.9695
lfoot -18.2766 2.24947
ltoes -3.50686
1468
root 11.1625 18.6608 17.1243 -178.035 8.75245 174.646
lowerback 0.222827 -1.69218 -8.35486
upperback 0.643609 -2.10754 -1.89864
thorax 0.779361 -1.04115 2.6999
lowerneck 1.9988 -3.14293 -4.43811
upperneck 23.9825 -2.83321 4.63287
head 7.13345 -0.523593 2.22545
rclavicle -2.35063e-014 -3.73715e-014
rhumerus 44.8792 -67.8677 -21.7463
rradius 26.6999
rwrist -37.2586
rhand -13.8638 22.4442
rfingers 7.12502
rthumb 12.2604 -7.17642
lclavicle -2.35063e-014 -3.73715e-014
lhumerus 42.0883 58.6395 14.8838
lradius 31.6253
lwrist 55.8595
lhand -16.8491 20.302
lfingers 7.12502
lthumb 9.38098 50.0733
rfemur -24.3168 4.08094 7.0667
rtibia 37.3626
rfoot -11.8446 -14.1162
rtoes 10.113
lfemur -1.29436 -6.00236 -27.6759
ltibia 20.1666
lfoot -18.0606 2.3412
ltoes -4.10987
1469
root 11.1739 18.6638 17.0492 -178.392 8.67764 174.393
lowerback 0.560694 -1.69758 -8.58117
upperback 0.60302 -2.14805 -1.93774
thorax 0.559431 -1.05055 2.79559
lowerneck 1.96365 -3.14913 -4.69886
upperneck 24.1562 -2.86761 4.94441
head 7.20669 -0.526369 2.37476
rclavicle 1.75179e-014 -5.96354e-015
rhumerus 44.423 -67.1461 -21.3943
rradius 26.7207
rwrist -37.6224
rhand -13.9121 22.4223
rfingers 7.12502
rthumb 12.2139 -7.20111
lclavicle 1.75179e-014 -5.96354e-015
lhumerus 41.2055 57.7859 14.2328
lradius 31.8341
lwrist 55.9739
lhand -16.753 20.7193
lfingers 7.12502
lthumb 9.47371 50.4863
rfemur -24.2348 4.41427 6.64468
rtibia 35.9491
rfoot -11.0139 -13.2748
rtoes 10.0245
lfemur -0.255139 -6.01125 -28.0431
ltibia 19.3797
lfoot -17.988 2.51597
ltoes -5.3556
1470
root 11.1871 18.6634 16.9732 -178.642 8.63154 174.28
lowerback 0.792856 -1.6917 -8.71056
upperback 0.508617 -2.17368 -1.90635
thorax 0.340018 -1.0534 2.90858
lowerneck 1.94885 -3.2165 -4.82374
upperneck 24.4005 -2.933 4.99851
head 7.2974 -0.54775 2.41601
rclavicle -3.4514e-014 3.37934e-014
rhumerus 44.0473 -66.4222 -21.1353
rradius 26.7688
rwrist -38.0419
rhand -13.9358 22.394
rfingers 7.12502
rthumb 12.191 -7.23074
lclavicle -3.4514e-014 3.37934e-014
lhumerus 39.493 56.5627 12.7862
lradius 32.1207
lwrist 56.6203
lhand -17.0123 20.8421
lfingers 7.12502
lthumb 9.22344 50.6204
rfemur -24.2043 4.97907 6.37702
rtibia 34.5442
rfoot -9.61188 -12.7467
rtoes 7.82469
lfemur 0.708786 -6.12997 -28.2625
ltibia 18.5788
lfoot -17.892 2.75325
ltoes -6.08727
1471
root 11.2033 18.666 16.9058 -178.578 8.53303 174.529
lowerback 0.875855 -1.69203 -8.53286
upperback 0.434841 -2.20069 -1.7426
thorax 0.218463 -1.06612 2.98349
lowerneck 1.54873 -3.3219 -4.77744
upperneck 24.7051 -3.02394 4.77927
head 7.47122 -0.595525 2.33262
rclavicle 3.70236e-015 4.8901e-014
rhumerus 45.4739 -66.3126 -22.7178
rradius 26.5864
rwrist -37.4732
rhand -13.7158 22.5009
rfingers 7.12502
rthumb 12.4031 -7.11112
lclavicle 3.70236e-015 4.8901e-014
lhumerus 38.3826 55.7119 12.0442
lradius 32.2942
lwrist 56.6165
lhand -17.1435 21.1191
lfingers 7.12502
lthumb 9.09688 50.9029
rfemur -24.4387 5.62951 6.47564
rtibia 33.1901
rfoot -8.37127 -12.382
rtoes 8.55492
lfemur 1.36438 -6.09843 -27.9771
ltibia 17.7205
lfoot -17.6836 2.82784
ltoes -7.03015
1472
root 11.2184 18.6656 16.8369 -178.398 8.55733 174.836
lowerback 0.728698 -1.60415 -8.21739
upperback 0.435819 -2.07737 -1.63335
thorax 0.279693 -1.01139 2.9176
lowerneck 1.04774 -3.36728 -4.44354
upperneck 24.8681 -3.06378 4.54265
head 7.60626 -0.603681 2.19254
rclavicle 1.6027e-014 3.49861e-014
rhumerus 45.7931 -66.296 -23.237
rradius 26.492
rwrist -37.0817
rhand -13.5077 22.4077
rfingers 7.12502
rthumb 12.6037 -7.19207
lclavicle 1.6027e-014 3.49861e-014
lhumerus 37.9545 55.0636 11.9217
lradius 32.3311
lwrist 56.3966
lhand -16.9583 21.211
lfingers 7.12502
lthumb 9.27559 50.9869
rfemur -24.8517 6.33592 6.56755
rtibia 31.873
rfoot -7.8519 -12.0796
rtoes 12.1827
lfemur 1.86949 -5.87516 -27.6033
ltibia 16.8982
lfoot -17.4826 2.80837
ltoes -8.3353
1473
root 11.2306 18.6578 16.7619 -178.207 8.58367 174.742
lowerback 0.452975 -1.47156 -8.15217
upperback 0.60265 -1.85522 -1.72904
thorax 0.577921 -0.912577 2.77331
lowerneck 0.138686 -3.46954 -3.95244
upperneck 24.8584 -3.27574 4.4197
head 7.76107 -0.692264 2.04287
rclavicle -5.9859e-014 -3.53837e-014
rhumerus 44.0021 -66.3156 -21.6402
rradius 26.6459
rwrist -37.7974
rhand -13.5726 22.1252
rfingers 7.12502
rthumb 12.5412 -7.47839
lclavicle -5.9859e-014 -3.53837e-014
lhumerus 38.17 54.749 12.3877
lradius 32.2756
lwrist 56.0133
lhand -16.0695 21.0599
lfingers 7.12502
lthumb 10.1331 50.7959
rfemur -25.328 6.8878 6.17542
rtibia 30.5695
rfoot -7.06917 -11.8005
rtoes 13.4931
lfemur 2.29963 -5.65263 -27.6858
ltibia 16.125
lfoot -17.197 2.73203
ltoes -8.23823
1474
root 11.2475 18.6576 16.6871 -178.264 8.49275 174.557
lowerback 0.598374 -1.2498 -8.10396
upperback 1.16334 -1.51273 -1.99207
thorax 1.03348 -0.759502 2.47314
lowerneck -2.12164 -3.73962 -3.16321
upperneck 25.0478 -3.85354 4.35327
head 8.23693 -0.940872 1.81686
rclavicle -6.68413e-015 -1.90833e-014
rhumerus 41.7975 -67.1306 -19.8089
rradius 26.8588
rwrist -38.5334
rhand -13.8728 21.8146
rfingers 7.12502
rthumb 12.2517 -7.8065
lclavicle -6.68413e-015 -1.90833e-014
lhumerus 39.5977 55.1122 13.8898
lradius 32.1559
lwrist 55.3343
lhand -15.02 21.3608
lfingers 7.12502
lthumb 11.1455 51.0448
rfemur -25.4932 7.45075 5.74008
rtibia 29.3624
rfoot -6.00965 -11.744
rtoes 11.9125
lfemur 3.08065 -5.30174 -27.8187
ltibia 15.2236
lfoot -16.8543 2.47066
ltoes -7.85025
1475
root 11.2652 18.6677 16.6113 -178.267 8.33462 174.539
lowerback 0.618239 -1.22203 -7.96193
upperback 1.30478 -1.46077 -2.0821
thorax 1.15751 -0.736235 2.3005
lowerneck -2.75789 -3.78179 -2.88366
upperneck 24.9315 -3.99923 4.32193
head 8.31143 -1.00837 1.73525
rclavicle -1.82882e-014 3.73715e-014
rhumerus 41.1879 -67.2551 -19.6466
rradius 26.8901
rwrist -38.4599
rhand -13.8198 21.7246
rfingers 7.12502
rthumb 12.3028 -7.8935
lclavicle -1.82882e-014 3.73715e-014
lhumerus 38.1697 54.2128 12.6572
lradius 32.3801
lwrist 55.8615
lhand -14.7063 21.5047
lfingers 7.12502
lthumb 11.448 51.1721
rfemur -25.6442 8.24372 5.41657
rtibia 28.2369
rfoot -5.44202 -12.098
rtoes 12.3489
lfemur 3.83541 -5.24305 -27.7984
ltibia 14.2865
lfoot -16.2755 2.45592
ltoes -7.82217
1476
root 11.2874 18.6643 16.5424 -178.448 8.23071 174.633
lowerback 0.893379 -1.23743 -7.8186
upperback 1.36668 -1.50858 -2.03029
thorax 1.06857 -0.758586 2.27932
lowerneck -3.04023 -3.75608 -2.81798
upperneck 24.833 -3.97979 4.1928
head 8.32425 -1.01955 1.67574
rclavicle 2.62893e-014 -2.78299e-015
rhumerus 41.6349 -67.2111 -20.4678
rradius 26.7989
rwrist -38.1697
rhand -13.3195 21.9308
rfingers 7.12502
rthumb 12.7852 -7.6577
lclavicle 2.62893e-014 -2.78299e-015
lhumerus 35.8727 53.0732 10.7472
lradius 32.6284
lwrist 56.5856
lhand -14.7152 20.891
lfingers 7.12502
lthumb 11.4394 50.5589
rfemur -25.5928 9.2195 5.23109
rtibia 27.1667
rfoot -5.17062 -12.678
rtoes 15.5724
lfemur 4.69276 -5.23016 -27.6886
ltibia 13.5613
lfoot -15.8615 2.43835
ltoes -7.40884
1477
root 11.3092 18.6553 16.4722 -178.572 8.10732 174.774
lowerback 1.11932 -1.31195 -7.63892
upperback 1.31876 -1.64514 -1.89242
thorax 0.902773 -0.824128 2.32716
lowerneck -2.8681 -3.66094 -2.88452
upperneck 24.5207 -3.83161 4.02361
head 8.17875 -0.99078 1.63894
rclavicle 2.84014e-014 4.73108e-014
rhumerus 42.4679 -66.9525 -21.5899
rradius 26.7177
rwrist -37.9371
rhand -12.8386 22.0546
rfingers 7.12502
rthumb 13.2488 -7.5043
lclavicle 2.84014e-014 4.73108e-014
lhumerus 33.8102 52.1182 9.23545
lradius 32.6603
lwrist 56.4408
lhand -14.4814 20.5724
lfingers 7.12502
lthumb 11.6649 50.2277
rfemur -25.6045 9.80528 5.20399
rtibia 26.2282
rfoot -4.71235 -13.2532
rtoes 15.6864
lfemur 5.46179 -5.11146 -27.4967
ltibia 12.9417
lfoot -15.7356 2.15655
ltoes -6.73859
1478
root 11.322 18.6543 16.3952 -178.441 7.61313 174.542
lowerback 0.964511 -1.57081 -7.72403
upperback 1.19938 -1.98913 -1.81402
thorax 0.905151 -0.99696 2.45107
lowerneck -2.52606 -3.48131 -3.14616
upperneck 24.0891 -3.57146 3.96725
head 7.965 -0.918747 1.68231
rclavicle 1.34428e-014 2.78299e-014
rhumerus 42.7988 -66.5208 -22.1331
rradius 26.7143
rwrist -37.9105
rhand -12.563 22.04
rfingers 7.12502
rthumb 13.5144 -7.50151
lclavicle 1.34428e-014 2.78299e-014
lhumerus 31.7236 51.1407 7.80587
lradius 32.6001
lwrist 55.9004
lhand -13.8928 20.7671
lfingers 7.12502
lthumb 12.2324 50.3894
rfemur -25.848 9.83545 4.7026
rtibia 25.4564
rfoot -4.69871 -14.0608
rtoes 15.1342
lfemur 5.8394 -5.37451 -27.7017
ltibia 12.3711
lfoot -15.6152 1.93672
ltoes -5.79088
1479
root 11.3361 18.6555 16.3155 -178.305 7.20306 174.051
lowerback 0.743207 -1.83147 -8.05224
upperback 1.03167 -2.32451 -1.80788
thorax 0.903773 -1.16245 2.63229
lowerneck -2.21493 -3.32854 -3.70669
upperneck 23.8493 -3.3547 4.16228
head 7.83414 -0.857967 1.85898
rclavicle 5.76476e-015 1.74931e-014
rhumerus 42.3566 -65.8913 -21.8915
rradius 26.7103
rwrist -38.0158
rhand -12.4123 22.0524
rfingers 7.12502
rthumb 13.6596 -7.47939
lclavicle 5.76476e-015 1.74931e-014
lhumerus 29.2316 49.8443 6.05828
lradius 32.6755
lwrist 55.7269
lhand -13.3942 20.9949
lfingers 7.12502
lthumb 12.7132 50.5879
rfemur -26.117 10.0354 3.85798
rtibia 24.7583
rfoot -5.1066 -15.0132
rtoes 16.3562
lfemur 6.13034 -5.63428 -28.2192
ltibia 11.9269
lfoot -15.6229 2.06008
ltoes -6.19151
1480
root 11.3587 18.6531 16.2379 -178.249 7.09109 173.953
lowerback 0.729105 -1.96907 -8.12698
upperback 0.836234 -2.53021 -1.66514
thorax 0.740043 -1.26027 2.82248
lowerneck -1.82256 -3.20606 -4.29269
upperneck 23.6313 -3.16996 4.33139
head 7.69682 -0.813005 2.02926
rclavicle 1.46479e-014 -4.37326e-015
rhumerus 41.7395 -65.163 -21.4937
rradius 26.6924
rwrist -38.0297
rhand -12.1799 22.104
rfingers 7.12502
rthumb 13.8836 -7.41259
lclavicle 1.46479e-014 -4.37326e-015
lhumerus 26.5184 48.3004 4.18517
lradius 32.8527
lwrist 55.8729
lhand -13.3801 20.9796
lfingers 7.12502
lthumb 12.7268 50.5717
rfemur -26.3058 10.4863 3.54414
rtibia 24.128
rfoot -5.38043 -15.7171
rtoes 17.0186
lfemur 6.51346 -5.37642 -28.2562
ltibia 11.5839
lfoot -15.5319 2.04408
ltoes -7.51592
